# xmcd
#
# Track frame offsets: 
#        150
#        12978
#        26635
#        39700
#        61091
#        73005
#        85868
#        99275
#        111345
#        123833
#        136697
#        148295
#        159475
#        171366
#        182862
#        197340
#        209582
#        221629
#        235778
#        247918
#        259172
#        270028
#        281269
#        292790
#        305167
#
# Disc length: 4247 seconds
#
# Revision: 1
# Processed by: cddbd v1.5.2PL0 Copyright (c) Steve Scherf et al.
# Submitted via: ExactAudioCopyFreeDBPlugin 1.0
#
DISCID=64109519
DTITLE=Various Artist - The Very Best of Burlesque [Not Now Music]
DYEAR=2010
DGENRE=Burlesque
TTITLE0=Bobby Darin - Beyond the Sea
TTITLE1=Carmen McRae - Whatever Lola Wants
TTITLE2=Eartha Kitt - Just an Old-Fashioned Girl
TTITLE3=Louis Prima - Just a Gigolo - I An't Got Nobody
TTITLE4=Bill Doggett - Honky Tonk (Part 2)
TTITLE5=Roy Milton - T-Town Twist
TTITLE6=Red Callender Sextette - Rock Bottom
TTITLE7=LaVern Baker - I Can't Love You Enough
TTITLE8=Varetta Dillard - So Many Ways (To Love You)
TTITLE9=Ruth Brown - Daddy, Daddy
TTITLE10=Julia Lee - Do You Want It?
TTITLE11=Lee Allen - Walkin' with Mr.Lee
TTITLE12=Li'L Millet and his Creoles - Rich Woman
TTITLE13=Big Joe Turner - Don't You Cry
TTITLE14=Gene Ammons - It's You or No One
TTITLE15=Johnny "Guitar" Watson - Hot Little Mama
TTITLE16=Morris Lane - Bobby's Boogie
TTITLE17=Gene Ammons Sextet - Red Top
TTITLE18=Big Jay McNeely - Rock Candy
TTITLE19=Jimmy McCracklin - I Want to Make Love to You
TTITLE20=Bull Moose Jackson - Big Fat Mamas are Back in Style Again
TTITLE21=Lynn Hope Quintet - More Bounce to the Ounce
TTITLE22=Hal Singer Sextette - Beef Stew
TTITLE23=Ruth Brown - Mambo Baby
TTITLE24=Cab Calloway - The Honeydripper
EXTD=
EXTT0=
EXTT1=
EXTT2=
EXTT3=
EXTT4=
EXTT5=
EXTT6=
EXTT7=
EXTT8=
EXTT9=
EXTT10=
EXTT11=
EXTT12=
EXTT13=
EXTT14=
EXTT15=
EXTT16=
EXTT17=
EXTT18=
EXTT19=
EXTT20=
EXTT21=
EXTT22=
EXTT23=
EXTT24=
PLAYORDER=
